<svg width="24" height="24" viewBox="0 0 24 24" fill="none" xmlns="http://www.w3.org/2000/svg">
<g clip-path="url(#clip0)">
<path d="M11.007 9.44114e-05C10.22 0.0310944 9.49195 0.370094 8.78495 0.685094C8.1837 0.969564 7.56031 1.20467 6.92095 1.38809C6.28595 1.56409 5.62095 1.74209 5.10695 2.17609C4.88495 2.35609 4.75095 2.61509 4.57795 2.83809C4.26895 3.32409 4.12995 3.90509 4.12095 4.47609C4.15695 5.08609 4.33695 5.67609 4.49695 6.26209C4.86495 7.52409 5.30395 8.76509 5.69395 10.0211C6.05995 11.1821 6.39695 12.3651 6.98795 13.4371C7.18495 13.8311 7.33795 14.2451 7.52295 14.6431C7.54995 14.7101 7.57495 14.8011 7.66495 14.7921C7.80095 14.7801 7.90795 14.6771 8.03295 14.6281C8.86095 14.2141 9.77295 13.9861 10.688 13.8791C11.396 13.8051 12.118 13.8011 12.819 13.9331C13.539 14.0961 14.236 14.3591 14.911 14.6571C15.271 14.8291 15.63 15.0051 15.999 15.1551C16.047 15.1951 16.134 15.2131 16.159 15.1391C16.378 14.8121 16.628 14.5041 16.826 14.1631C17.321 13.1021 17.348 11.8841 17.864 10.8321C18.222 10.1111 18.7559 9.49509 19.1299 8.78409C19.3049 8.51809 19.561 8.31709 19.718 8.03709C20.155 7.36809 20.498 6.63909 20.768 5.88709C20.87 5.59409 20.94 5.27509 20.858 4.96809C20.798 4.66909 20.656 4.39809 20.54 4.12009C20.4797 3.88781 20.386 3.66549 20.2619 3.46009C19.8549 2.78409 19.192 2.31109 18.519 1.92409C17.474 1.33409 16.323 0.955094 15.168 0.644094C13.9426 0.318799 12.69 0.106576 11.426 0.0100944C11.2862 0.000884166 11.146 -0.0024521 11.006 9.44114e-05H11.007ZM10.118 0.606094C9.85695 0.829094 9.75495 1.17509 9.64995 1.48909C9.48195 2.05709 9.38695 2.65209 9.44295 3.24509C9.50695 4.30709 9.63995 5.36509 9.77295 6.42009C9.95295 7.77209 10.16 9.12009 10.45 10.4541C10.476 10.6191 10.514 10.8011 10.5 10.9641C10.385 10.7891 10.318 10.5811 10.242 10.3841C9.99195 9.61909 9.80995 8.83509 9.63795 8.05009C9.3303 6.62933 9.14231 5.18527 9.07595 3.73309C9.05095 2.89009 9.07195 2.00709 9.44595 1.23209C9.56395 1.00609 9.70495 0.772094 9.92595 0.635094C9.9927 0.598943 10.0682 0.581983 10.144 0.586094L10.118 0.606094V0.606094ZM6.51595 1.77009C6.64395 1.77009 6.65495 1.92909 6.68395 2.02209C6.94995 2.82009 7.10595 3.65009 7.36295 4.45009C7.53695 5.09909 7.60095 5.77309 7.67095 6.44109C7.76795 7.48009 7.77895 8.52609 7.91695 9.56109C7.94295 9.76009 7.99895 9.95409 8.03595 10.1511C8.04595 10.2181 7.97695 10.2001 7.95295 10.1651C7.80495 10.0041 7.76995 9.77409 7.70695 9.57309C7.54695 8.92809 7.46495 8.26809 7.37295 7.61109C7.19895 6.29509 7.08595 4.97109 6.84395 3.66609C6.68595 3.05409 6.48795 2.45109 6.38395 1.82809C6.38995 1.77709 6.47695 1.78009 6.51595 1.77009V1.77009ZM4.58895 3.60709C4.81795 3.66309 4.95395 3.87509 5.10095 4.04109C5.50095 4.57609 5.64095 5.24509 5.79595 5.88409C6.07895 7.14909 6.24195 8.43709 6.52095 9.70409C6.65195 10.3701 6.81395 11.0301 7.02795 11.6751C7.04195 11.7261 7.06295 11.8081 7.06595 11.8451C6.83295 11.4151 6.67295 10.9491 6.50095 10.4921C5.90295 8.79409 5.67795 6.99609 5.20095 5.26409C5.06795 4.78609 4.89295 4.31409 4.60495 3.90609C4.55795 3.81809 4.52495 3.70209 4.56795 3.60909C4.57395 3.60509 4.58195 3.60609 4.58795 3.60709H4.58895ZM17.235 16.8031C17.099 16.8101 16.925 16.9131 16.959 17.0701C17.053 17.2881 17.293 17.3781 17.485 17.4861C17.926 17.7021 18.423 17.7761 18.843 18.0321C18.935 18.0921 18.992 18.2291 18.907 18.3191C18.727 18.5851 18.437 18.7591 18.184 18.9531C17.812 19.2191 17.407 19.4631 17.127 19.8321C17.061 19.9391 17.086 20.0991 17.209 20.1521C17.318 20.2311 17.452 20.1701 17.547 20.1011C18.065 19.8071 18.542 19.4471 19.025 19.0991C19.345 18.8601 19.669 18.6221 19.951 18.3391C20.036 18.2041 19.921 18.0651 19.833 17.9681C19.56 17.6831 19.213 17.4811 18.868 17.2981C18.4107 17.0582 17.9188 16.8912 17.41 16.8031C17.3517 16.799 17.2932 16.799 17.235 16.8031V16.8031ZM5.95995 16.8301C5.43295 16.9641 4.96295 17.2501 4.48595 17.5031C4.06095 17.7461 3.63195 17.9991 3.28095 18.3441C3.16331 18.4788 3.10175 18.6534 3.10895 18.8321C3.17395 18.9401 3.30895 18.9721 3.40995 19.0381C4.26195 19.4801 5.14495 19.8601 6.03995 20.2061C6.17195 20.2481 6.30495 20.3191 6.44595 20.3131C6.60395 20.2931 6.75495 20.1091 6.65895 19.9571C6.51295 19.7141 6.23895 19.5961 6.00895 19.4511C5.46195 19.1481 4.85495 18.9391 4.37295 18.5331C4.32695 18.4421 4.46695 18.4051 4.51495 18.3531C5.06395 17.9581 5.74395 17.7601 6.22795 17.2761C6.31695 17.1861 6.39195 17.0171 6.27595 16.9181C6.18995 16.8451 6.06995 16.8311 5.95995 16.8301V16.8301ZM14.075 17.6231C13.645 17.6501 13.24 18.0541 13.301 18.4991C13.333 18.7581 13.39 19.0241 13.529 19.2481C13.649 19.4281 13.859 19.5341 14.075 19.5351C14.348 19.5661 14.665 19.4761 14.801 19.2171C14.938 18.9801 15.013 18.7031 15.006 18.4301C14.968 17.9701 14.54 17.5851 14.076 17.6231H14.075ZM9.58495 17.6331C9.12095 17.6611 8.77795 18.1381 8.81495 18.5861C8.82595 19.0301 9.12995 19.4881 9.57995 19.5801C9.93195 19.6401 10.29 19.3901 10.383 19.0501C10.508 18.7001 10.515 18.2891 10.339 17.9551C10.182 17.7051 9.86095 17.6281 9.58495 17.6331V17.6331ZM9.69695 18.2861C9.93795 18.3501 9.99095 18.7561 9.74195 18.8441C9.60095 18.8781 9.50295 18.7241 9.50795 18.6001C9.49995 18.4731 9.55795 18.3131 9.69695 18.2861ZM14.134 18.4291C14.231 18.4291 14.36 18.5001 14.324 18.6161C14.311 18.7871 14.109 18.9491 13.947 18.8421C13.815 18.7721 13.775 18.5461 13.927 18.4741C13.9909 18.4416 14.0622 18.4261 14.134 18.4291ZM10.616 21.4061C10.063 21.4571 9.57195 21.7411 9.07395 21.9651C8.76995 22.1211 8.41195 22.2771 8.06895 22.1521C7.69195 22.0321 7.36195 21.8021 7.00995 21.6321C6.93495 21.6191 6.94895 21.7091 6.96295 21.7541C7.04395 22.2841 7.09195 22.8561 7.41695 23.3041C7.75495 23.7411 8.31895 23.9221 8.84995 23.9711C9.64695 24.0431 10.492 23.8531 11.121 23.3421C11.43 23.0801 11.692 22.7111 11.706 22.2931C11.7 21.9691 11.462 21.6971 11.182 21.5591C11.0109 21.4571 10.8151 21.4042 10.616 21.4061V21.4061ZM13.196 21.4141C12.8 21.4661 12.381 21.6761 12.224 22.0641C12.095 22.4221 12.258 22.8121 12.496 23.0841C12.922 23.5931 13.566 23.8771 14.214 23.9681C14.791 24.0461 15.4 23.9821 15.928 23.7281C16.366 23.5031 16.695 23.0731 16.778 22.5861C16.842 22.2951 16.859 21.9961 16.902 21.7021C16.836 21.6241 16.754 21.7401 16.684 21.7541C16.347 21.8961 16.037 22.1211 15.674 22.1891C15.311 22.2131 14.987 22.0171 14.659 21.8961C14.229 21.7181 13.808 21.4931 13.344 21.4181C13.2951 21.4138 13.246 21.4124 13.197 21.4141H13.196ZM10.315 16.3231C10.245 16.3231 10.172 16.3371 10.099 16.3531C9.94372 16.3913 9.79189 16.4421 9.64495 16.5051C9.49495 16.5661 9.35295 16.6321 9.23795 16.6851C9.16619 16.7179 9.09349 16.7485 9.01995 16.7771C8.95718 16.787 8.89292 16.775 8.83795 16.7431C8.77595 16.7061 8.71795 16.6421 8.69695 16.4881L8.42695 16.5261C8.45795 16.7441 8.56695 16.8961 8.69695 16.9761C8.82695 17.0551 8.96495 17.0661 9.07495 17.0431C9.15995 17.0251 9.23495 16.9851 9.35095 16.9321C9.46695 16.8791 9.60595 16.8141 9.74795 16.7561C9.89095 16.6981 10.036 16.6461 10.158 16.6181C10.2399 16.5945 10.3265 16.5914 10.41 16.6091C10.55 16.6691 10.6 16.7391 10.625 16.7881C10.65 16.8381 10.655 16.8551 10.655 16.8551L10.918 16.7951C10.918 16.7951 10.92 16.7711 10.868 16.6671C10.7912 16.5267 10.6672 16.4179 10.518 16.3601C10.4534 16.3331 10.3838 16.3205 10.314 16.3231H10.315ZM13.059 20.2601C13.0394 20.2606 13.0201 20.2653 13.0025 20.2739C12.9849 20.2826 12.9693 20.2949 12.957 20.3101C12.957 20.3101 12.835 20.4581 12.671 20.6051C12.506 20.7531 12.291 20.8851 12.178 20.8881C12.066 20.8911 11.864 20.7701 11.708 20.6281C11.553 20.4881 11.441 20.3441 11.441 20.3441C11.4305 20.3287 11.417 20.3157 11.4012 20.3058C11.3855 20.2959 11.3679 20.2893 11.3496 20.2864C11.3312 20.2835 11.3124 20.2845 11.2945 20.2891C11.2765 20.2938 11.2596 20.3021 11.245 20.3136C11.2303 20.325 11.2182 20.3393 11.2093 20.3556C11.2003 20.3719 11.1949 20.3899 11.1932 20.4084C11.1915 20.4269 11.1936 20.4456 11.1994 20.4633C11.2052 20.4809 11.2146 20.4972 11.227 20.5111C11.227 20.5111 11.351 20.6711 11.526 20.8301C11.701 20.9901 11.923 21.1671 12.186 21.1601C12.445 21.1521 12.67 20.9701 12.852 20.8081C13.034 20.6451 13.167 20.4831 13.167 20.4831C13.1837 20.463 13.1943 20.4385 13.1974 20.4126C13.2006 20.3866 13.1963 20.3603 13.1849 20.3368C13.1735 20.3132 13.1555 20.2935 13.1332 20.2799C13.1109 20.2663 13.0851 20.2594 13.059 20.2601V20.2601ZM11.007 0.00109441C10.22 0.0310944 9.49195 0.369094 8.78495 0.685094C8.1837 0.969564 7.56031 1.20467 6.92095 1.38809C6.28595 1.56409 5.62095 1.74209 5.10695 2.17609C4.88495 2.35609 4.75095 2.61609 4.57795 2.83909C4.26895 3.32409 4.12995 3.90509 4.12095 4.47609C4.15695 5.08609 4.33695 5.67609 4.49695 6.26209C4.86495 7.52509 5.30395 8.76509 5.69395 10.0211C6.05995 11.1821 6.39695 12.3651 6.98795 13.4381C7.18495 13.8311 7.33795 14.2451 7.52295 14.6431C7.54995 14.7101 7.57495 14.8011 7.66495 14.7931C7.80095 14.7801 7.90795 14.6771 8.03295 14.6281C8.86095 14.2141 9.77295 13.9871 10.688 13.8791C11.396 13.8051 12.118 13.8011 12.819 13.9341C13.539 14.0971 14.236 14.3591 14.911 14.6571C15.271 14.8291 15.63 15.0051 15.999 15.1551C16.047 15.1951 16.134 15.2131 16.159 15.1391C16.378 14.8121 16.628 14.5041 16.826 14.1641C17.321 13.1021 17.348 11.8841 17.864 10.8321C18.222 10.1111 18.7559 9.49609 19.1299 8.78509C19.3049 8.51909 19.561 8.31709 19.718 8.03809C20.155 7.36809 20.498 6.63809 20.768 5.88709C20.87 5.59409 20.94 5.27509 20.858 4.96809C20.798 4.67009 20.656 4.39809 20.54 4.12009C20.4796 3.88815 20.386 3.66618 20.2619 3.46109C19.8549 2.78509 19.192 2.31109 18.519 1.92509C17.474 1.33409 16.323 0.955094 15.168 0.644094C13.9426 0.318799 12.69 0.106576 11.426 0.0100944C11.2862 0.000884166 11.146 -0.0024521 11.006 9.44114e-05L11.007 0.00109441ZM10.118 0.607094C9.85695 0.829094 9.75495 1.17509 9.64995 1.49009C9.48195 2.05709 9.38695 2.65309 9.44295 3.24509C9.50695 4.30709 9.63995 5.36509 9.77295 6.42009C9.95295 7.77209 10.16 9.12109 10.45 10.4541C10.476 10.6191 10.514 10.8011 10.5 10.9641C10.385 10.7891 10.318 10.5811 10.242 10.3841C9.99195 9.61909 9.80995 8.83509 9.63795 8.05009C9.33035 6.62966 9.14236 5.18594 9.07595 3.73409C9.05095 2.89009 9.07195 2.00709 9.44595 1.23209C9.56395 1.00709 9.70495 0.772094 9.92595 0.635094C9.9927 0.598943 10.0682 0.581983 10.144 0.586094L10.118 0.606094V0.607094ZM6.51595 1.77009C6.64395 1.77009 6.65495 1.93009 6.68395 2.02209C6.94995 2.82009 7.10595 3.65009 7.36295 4.45109C7.53695 5.09909 7.60095 5.77309 7.67095 6.44109C7.76795 7.48109 7.77895 8.52709 7.91695 9.56109C7.94295 9.76009 7.99895 9.95509 8.03595 10.1511C8.04595 10.2191 7.97695 10.2011 7.95295 10.1651C7.80495 10.0051 7.76995 9.77509 7.70695 9.57309C7.54695 8.92809 7.46495 8.26909 7.37295 7.61109C7.19895 6.29609 7.08595 4.97109 6.84395 3.66609C6.68595 3.05409 6.48795 2.45109 6.38395 1.82809C6.38995 1.77709 6.47695 1.78009 6.51595 1.77009V1.77009ZM4.58895 3.60809C4.81795 3.66309 4.95395 3.87509 5.10095 4.04109C5.50095 4.57609 5.64095 5.24509 5.79595 5.88409C6.07895 7.14909 6.24195 8.43809 6.52095 9.70409C6.65195 10.3701 6.81395 11.0311 7.02795 11.6751C7.04195 11.7261 7.06295 11.8081 7.06595 11.8451C6.83295 11.4151 6.67295 10.9491 6.50095 10.4931C5.90295 8.79309 5.67795 6.99609 5.20095 5.26309C5.06795 4.78609 4.89295 4.31309 4.60495 3.90609C4.55795 3.81909 4.52495 3.70209 4.56795 3.61009C4.57395 3.60609 4.58195 3.60709 4.58795 3.60809H4.58895ZM17.235 16.8031C17.099 16.8101 16.925 16.9131 16.959 17.0711C17.053 17.2881 17.293 17.3781 17.485 17.4871C17.926 17.7021 18.423 17.7761 18.843 18.0321C18.935 18.0921 18.992 18.2291 18.907 18.3191C18.727 18.5861 18.437 18.7591 18.184 18.9531C17.812 19.2191 17.407 19.4631 17.127 19.8321C17.061 19.9391 17.086 20.0991 17.209 20.1521C17.318 20.2311 17.452 20.1711 17.547 20.1021C18.065 19.8071 18.542 19.4471 19.025 19.1001C19.345 18.8601 19.669 18.6221 19.951 18.3391C20.036 18.2041 19.921 18.0651 19.833 17.9691C19.56 17.6831 19.213 17.4811 18.868 17.2971C18.4106 17.0579 17.9186 16.8915 17.41 16.8041C17.3517 16.7997 17.2932 16.7993 17.235 16.8031V16.8031ZM5.95895 16.8321C5.43195 16.9651 4.96195 17.2521 4.48495 17.5041C4.05995 17.7471 3.63095 18.0011 3.27995 18.3461C3.16255 18.4805 3.10101 18.6548 3.10795 18.8331C3.17295 18.9421 3.30795 18.9731 3.40895 19.0391C4.26095 19.4811 5.14395 19.8621 6.03895 20.2071C6.17095 20.2491 6.30395 20.3201 6.44495 20.3151C6.60295 20.2951 6.75395 20.1101 6.65795 19.9581C6.51195 19.7151 6.23795 19.5971 6.00795 19.4521C5.46095 19.1491 4.85395 18.9401 4.37195 18.5341C4.32595 18.4441 4.46595 18.4061 4.51395 18.3541C5.06295 17.9601 5.74295 17.7621 6.22695 17.2771C6.31595 17.1871 6.39095 17.0191 6.27495 16.9201C6.18895 16.8461 6.06895 16.8321 5.95895 16.8321ZM14.074 17.6241C13.644 17.6521 13.239 18.0561 13.3 18.5001C13.332 18.7601 13.389 19.0261 13.528 19.2501C13.648 19.4291 13.858 19.5351 14.074 19.5371C14.347 19.5671 14.664 19.4771 14.8 19.2181C14.937 18.9821 15.012 18.7041 15.005 18.4311C14.967 17.9711 14.539 17.5871 14.075 17.6241H14.074ZM9.58395 17.6341C9.11995 17.6621 8.77695 18.1391 8.81395 18.5871C8.82495 19.0311 9.12895 19.4891 9.57895 19.5821C9.93095 19.6411 10.289 19.3921 10.382 19.0521C10.507 18.7021 10.514 18.2901 10.338 17.9561C10.181 17.7071 9.85995 17.6291 9.58395 17.6341V17.6341ZM9.69595 18.2881C9.93695 18.3511 9.98995 18.7581 9.74095 18.8451C9.59995 18.8791 9.50195 18.7251 9.50695 18.6011C9.49895 18.4741 9.55695 18.3141 9.69595 18.2881ZM14.133 18.4301C14.23 18.4301 14.359 18.5021 14.323 18.6171C14.31 18.7891 14.108 18.9501 13.946 18.8441C13.814 18.7731 13.774 18.5471 13.926 18.4751C13.9899 18.4426 14.0612 18.4271 14.133 18.4301V18.4301ZM10.615 21.4071C10.062 21.4591 9.57095 21.7431 9.07295 21.9671C8.76895 22.1221 8.41095 22.2781 8.06795 22.1531C7.69095 22.0341 7.36095 21.8031 7.00895 21.6331C6.93395 21.6211 6.94795 21.7111 6.96195 21.7551C7.04295 22.2851 7.09095 22.8571 7.41595 23.3051C7.75395 23.7431 8.31795 23.9241 8.84895 23.9721C9.64595 24.0441 10.491 23.8541 11.12 23.3431C11.429 23.0811 11.691 22.7131 11.705 22.2941C11.699 21.9701 11.461 21.6981 11.181 21.5601C11.0099 21.4581 10.8141 21.4052 10.615 21.4071V21.4071ZM13.195 21.4151C12.799 21.4671 12.38 21.6771 12.223 22.0651C12.094 22.4241 12.257 22.8131 12.495 23.0861C12.921 23.5941 13.565 23.8781 14.213 23.9691C14.79 24.0471 15.399 23.9841 15.927 23.7291C16.365 23.5041 16.694 23.0741 16.777 22.5871C16.841 22.2971 16.858 21.9971 16.901 21.7031C16.835 21.6261 16.753 21.7421 16.683 21.7551C16.346 21.8981 16.036 22.1221 15.673 22.1911C15.31 22.2151 14.986 22.0191 14.658 21.8971C14.228 21.7191 13.807 21.4951 13.343 21.4201C13.2941 21.4158 13.245 21.4144 13.196 21.4161L13.195 21.4151Z" fill="white"/>
</g>
<defs>
<clipPath id="clip0">
<rect width="24" height="24" fill="white"/>
</clipPath>
</defs>
</svg>
