<svg width="1280" height="720" viewBox="0 0 1280 720" fill="none" xmlns="http://www.w3.org/2000/svg">
<rect width="1280" height="720" fill="#22215B"/>
<g clip-path="url(#clip0)">
<path d="M1008.32 66.9096L1080.51 66.3198L1081.1 138.514L1008.91 139.103L1008.32 66.9096Z" fill="#302F6C"/>
<path d="M1027.8 127.085L1033.3 123.692C1034.38 125.576 1035.36 127.166 1037.69 127.146C1039.92 127.125 1041.32 126.244 1041.29 122.848L1041.1 99.7775L1047.88 99.7209L1048.06 122.887C1048.12 129.917 1044.02 133.147 1038.02 133.199C1032.6 133.247 1029.42 130.464 1027.8 127.085Z" fill="#22215B"/>
<path d="M1051.78 126.159L1057.27 122.918C1058.74 125.278 1060.65 127.011 1064 126.979C1066.81 126.956 1068.59 125.533 1068.57 123.599C1068.55 121.272 1066.71 120.465 1063.59 119.136L1061.89 118.426C1056.98 116.386 1053.71 113.796 1053.67 108.266C1053.63 103.178 1057.48 99.2707 1063.53 99.2201C1067.83 99.182 1070.95 100.666 1073.21 104.566L1067.95 108.001C1066.78 105.925 1065.51 105.116 1063.57 105.131C1061.58 105.146 1060.33 106.418 1060.35 108.062C1060.36 110.1 1061.63 110.909 1064.55 112.15L1066.25 112.859C1072.04 115.28 1075.31 117.775 1075.35 123.447C1075.4 129.553 1070.63 132.939 1064.19 132.991C1057.9 133.047 1053.8 130.069 1051.78 126.159Z" fill="#22215B"/>
</g>
<path d="M989.467 271.07C966.381 271.299 967.928 281.3 967.928 281.3L968.063 291.672L990.096 291.448L990.124 294.564L959.346 294.873C959.346 294.873 944.555 293.345 944.791 316.645C945.026 339.945 957.909 338.984 957.909 338.984L965.601 338.905L965.494 328.097C965.494 328.097 964.95 315.204 978.056 315.074C991.162 314.945 999.905 314.85 999.905 314.85C999.905 314.85 1012.19 314.922 1012.06 302.859C1011.93 290.796 1011.86 282.908 1011.86 282.908C1011.86 282.908 1013.59 270.827 989.467 271.07ZM977.388 278.171C979.584 278.151 981.37 279.899 981.391 282.095C981.412 284.292 979.664 286.077 977.467 286.098C975.271 286.119 973.485 284.371 973.464 282.175C973.443 279.978 975.201 278.19 977.388 278.171Z" fill="#302F6C"/>
<path d="M991.037 361.532C1014.12 361.303 1012.58 351.302 1012.58 351.302L1012.44 340.931L990.408 341.154L990.38 338.038L1021.16 337.73C1021.16 337.73 1035.95 339.258 1035.71 315.957C1035.48 292.667 1022.59 293.619 1022.59 293.619L1014.9 293.698L1015.01 304.505C1015.01 304.505 1015.55 317.398 1002.45 317.528C989.341 317.658 980.599 317.752 980.599 317.752C980.599 317.752 968.318 317.68 968.445 329.743C968.571 341.806 968.642 349.694 968.642 349.694C968.642 349.694 966.909 361.775 991.037 361.532ZM1003.11 354.433C1000.91 354.454 999.124 352.706 999.103 350.509C999.082 348.313 1000.83 346.527 1003.03 346.506C1005.22 346.485 1007.01 348.233 1007.03 350.43C1007.06 352.624 1005.3 354.412 1003.11 354.433Z" fill="#302F6C"/>
<path d="M1062.09 581.766L1054.21 514.586L1120.18 512.75L1116.06 580.248L1089.24 588.488L1062.09 581.766Z" fill="#302F6C"/>
<path d="M1089.12 582.76L1110.79 576.102L1114.31 518.423L1087.35 519.173L1089.12 582.76Z" fill="#302F6C"/>
<path d="M1088.04 544.154L1077.11 544.457L1076.13 536.018L1087.81 535.696L1087.58 527.43L1087.55 527.436L1066.87 528.011L1067.13 530.225L1069.8 552.93L1088.28 552.41L1088.04 544.154Z" fill="#22215B"/>
<path d="M1088.65 565.6L1088.61 565.616L1079.34 563.388L1078.57 556.815L1074.1 556.935L1070.28 557.042L1071.8 569.985L1088.85 574.205L1088.88 574.19L1088.65 565.6Z" fill="#22215B"/>
<path d="M1059.84 496.115L1064.03 495.998L1064.16 500.142L1068 500.037L1067.87 495.893L1072.07 495.777L1072.42 508.328L1068.23 508.445L1068.11 504.241L1064.27 504.356L1064.39 508.559L1060.19 508.677L1059.84 496.115Z" fill="#302F6C"/>
<path d="M1077.71 499.781L1074.01 499.885L1073.9 495.722L1085.49 495.397L1085.6 499.56L1081.9 499.664L1082.13 508.062L1077.94 508.179L1077.71 499.781Z" fill="#302F6C"/>
<path d="M1087.32 495.343L1091.7 495.231L1094.52 499.56L1097.09 495.074L1101.46 494.951L1101.82 507.513L1097.63 507.632L1097.46 501.402L1094.69 505.951L1094.62 505.951L1091.61 501.567L1091.78 507.796L1087.68 507.905L1087.32 495.343Z" fill="#302F6C"/>
<path d="M1103.55 494.892L1107.75 494.776L1107.99 503.183L1113.89 503.026L1114 507.169L1103.9 507.453L1103.55 494.892Z" fill="#302F6C"/>
<path d="M1088.02 544.15L1088.25 552.406L1098.42 552.121L1097.76 562.86L1088.62 565.606L1088.86 574.197L1105.66 569.039L1105.75 567.638L1107.08 545.839L1107.22 543.618L1104.99 543.679L1088.02 544.15Z" fill="#22215B"/>
<path d="M1087.55 527.435L1087.7 532.562L1087.78 535.672L1087.78 535.692L1107.71 535.136L1107.74 535.14L1107.85 533.278L1108.1 529.074L1108.24 526.853L1087.55 527.435Z" fill="#22215B"/>
<path d="M201.322 139.985C200.489 139.108 199.616 138.239 198.693 137.359C199.251 136.722 199.778 136.094 200.296 135.466C208.669 125.168 211.949 115.071 208.237 109.245C204.675 103.666 194.77 102.396 182.562 105.341C181.388 105.621 180.193 105.949 178.977 106.307C178.701 105.515 178.424 104.732 178.136 103.979C173.388 91.5819 166.282 83.6973 159.382 84.0094C152.773 84.3139 146.723 92.2699 143.18 104.308C142.839 105.474 142.517 106.672 142.223 107.91C140.794 107.618 139.384 107.367 138.021 107.168C125.826 105.399 116.302 107.609 113.256 113.463C110.111 119.513 114.034 129.251 122.882 138.523C123.581 139.253 124.32 139.986 125.089 140.72C124.173 141.751 123.318 142.785 122.513 143.802C114.887 153.481 112.04 162.837 115.593 168.395C119.259 174.139 129.655 175.6 142.108 172.575C143.089 172.338 144.092 172.061 145.116 171.755C145.56 173.065 146.015 174.326 146.504 175.528C151.084 186.967 157.772 194.103 164.361 193.807C171.16 193.501 177.634 185.223 181.219 172.926C181.49 171.987 181.752 171.018 181.985 170.017C182.7 170.158 183.405 170.278 184.091 170.398C197.192 172.506 207.587 170.304 210.765 164.175C213.822 158.302 209.966 149.087 201.322 139.985Z" fill="#302F6C"/>
<path d="M184.832 165.756C184.206 165.659 183.57 165.541 182.925 165.413C183.723 160.863 184.22 155.84 184.411 150.494C188.533 147.319 192.267 144.047 195.491 140.793C196.337 141.601 197.153 142.407 197.919 143.211C205.329 151.008 208.44 158.46 206.605 162.004C204.639 165.782 196.154 167.577 184.832 165.756ZM176.701 171.61C175.115 177.047 172.937 181.577 170.479 184.723C168.275 187.551 166.018 189.034 164.143 189.113C160.142 189.291 154.774 183.563 150.863 173.785C150.411 172.665 149.981 171.495 149.574 170.276C153.886 168.701 158.449 166.636 163.141 164.147C168.068 166.182 172.882 167.811 177.406 168.978C177.186 169.889 176.948 170.76 176.701 171.61ZM126.52 169.169C122.969 168.665 120.558 167.459 119.546 165.874C117.39 162.498 119.677 154.989 126.2 146.714C126.952 145.765 127.744 144.809 128.597 143.845C132.132 146.8 136.219 149.74 140.751 152.578C141.477 157.774 142.483 162.733 143.748 167.271C142.815 167.551 141.894 167.802 141.004 168.014C135.491 169.346 130.48 169.72 126.52 169.169ZM126.275 135.276C122.368 131.184 119.535 127.027 118.044 123.319C116.707 119.988 116.553 117.299 117.416 115.635C119.261 112.081 126.915 110.311 137.339 111.823C138.602 112.007 139.914 112.234 141.243 112.512C140.403 117.12 139.837 122.1 139.592 127.294C135.418 130.537 131.609 133.906 128.28 137.285C127.588 136.614 126.917 135.945 126.275 135.276ZM147.686 105.634C150.725 95.3158 155.618 88.8813 159.599 88.7032C163.842 88.5064 169.658 94.9539 173.749 105.661C174.01 106.343 174.26 107.054 174.509 107.776C170.097 109.346 165.496 111.349 160.859 113.731C156.049 111.771 151.303 110.175 146.79 108.988C147.07 107.84 147.359 106.711 147.686 105.634ZM184.346 137.899C184.249 135.733 184.102 133.584 183.913 131.484C186.819 133.492 189.531 135.571 191.993 137.659C189.754 139.915 187.243 142.188 184.504 144.432C184.496 142.29 184.441 140.105 184.346 137.899ZM175.876 112.269C176.714 115.348 177.43 118.672 178.009 122.18C176.144 121.099 174.238 120.045 172.3 119.031C170.372 118.026 168.431 117.082 166.488 116.177C169.686 114.674 172.836 113.358 175.876 112.269ZM149.916 120.024C148.084 121.196 146.29 122.399 144.545 123.635C144.827 120.124 145.263 116.76 145.831 113.581C148.938 114.406 152.167 115.437 155.457 116.66C153.599 117.731 151.749 118.852 149.916 120.024ZM140.042 146.522C137.036 144.5 134.272 142.459 131.809 140.4C134.112 138.068 136.675 135.726 139.447 133.434C139.444 135.576 139.491 137.74 139.587 139.916C139.691 142.143 139.846 144.341 140.042 146.522ZM148.197 165.772C147.333 162.612 146.588 159.237 145.981 155.697C147.807 156.737 149.694 157.77 151.633 158.774C153.62 159.811 155.61 160.788 157.592 161.705C154.35 163.306 151.198 164.671 148.197 165.772ZM179.531 154.096C179.293 157.749 178.894 161.185 178.346 164.374C175.179 163.547 171.862 162.482 168.444 161.193C170.292 160.112 172.153 158.982 174.016 157.791C175.91 156.582 177.745 155.35 179.531 154.096ZM171.495 153.828C168.593 155.675 165.716 157.392 162.896 158.941C159.9 157.641 156.849 156.197 153.805 154.614C150.77 153.032 147.868 151.405 145.117 149.744C144.718 146.474 144.433 143.108 144.28 139.709C144.127 136.319 144.102 132.965 144.203 129.686C146.831 127.718 149.586 125.805 152.437 123.987C155.299 122.159 158.195 120.462 161.085 118.916C164.102 120.207 167.133 121.64 170.138 123.201C173.153 124.773 176.074 126.431 178.862 128.163C179.233 131.382 179.509 134.707 179.662 138.107C179.814 141.546 179.859 144.892 179.8 148.112C177.163 150.07 174.388 151.982 171.495 153.828ZM204.273 111.786C206.561 115.368 203.881 123.62 196.65 132.516C196.185 133.086 195.7 133.656 195.205 134.225C191.643 131.188 187.618 128.211 183.236 125.389C182.54 120.184 181.572 115.268 180.343 110.811C181.468 110.479 182.573 110.176 183.655 109.923C194.114 107.393 202.127 108.42 204.273 111.786Z" fill="#22215B"/>
<path d="M166.536 130.112C171.342 132.612 173.218 138.539 170.718 143.345C168.218 148.151 162.291 150.027 157.485 147.527C152.678 145.027 150.803 139.1 153.303 134.294C155.803 129.487 161.73 127.612 166.536 130.112Z" fill="#302F6C"/>
<path fill-rule="evenodd" clip-rule="evenodd" d="M355.493 249.862C347.823 249.807 341.568 255.979 341.511 263.639C341.497 266.148 342.139 268.499 343.288 270.537L367.453 256.86C365.068 252.723 360.615 249.908 355.493 249.862Z" fill="#302F6C"/>
<path fill-rule="evenodd" clip-rule="evenodd" d="M327.502 263.541C327.615 248.14 340.191 235.75 355.582 235.864C365.893 235.938 374.865 241.609 379.624 249.965L396.505 240.416C395.84 239.227 394.835 238.228 393.492 237.431C382.364 230.909 371.219 224.409 360.101 217.875C357.102 216.117 354.176 216.152 351.181 217.898C346.716 220.493 324.347 233.091 317.678 236.884C314.933 238.449 313.588 240.855 313.56 244.01C313.458 256.963 313.367 269.924 313.266 282.886C313.259 284.438 313.573 285.811 314.218 287.003L331.098 277.444C328.777 273.339 327.469 268.6 327.502 263.541Z" fill="#302F6C"/>
<path d="M343.289 270.547C345.65 274.738 350.128 277.589 355.289 277.63C360.48 277.668 365.029 274.852 367.44 270.648L355.518 263.626L343.289 270.547Z" fill="#302F6C"/>
<path d="M355.181 291.631C344.829 291.552 335.843 285.853 331.098 277.444L314.218 287.003C314.887 288.222 315.895 289.251 317.281 290.063C323.887 293.96 346.077 306.882 350.501 309.538C353.483 311.329 356.403 311.405 359.422 309.697C370.639 303.329 381.879 296.988 393.106 290.618C394.493 289.829 395.531 288.82 396.212 287.601L379.503 277.754C374.636 286.117 365.552 291.708 355.181 291.631Z" fill="#302F6C"/>
<path d="M397.498 244.619C397.512 243.036 397.183 241.625 396.505 240.417L355.517 263.616L396.21 287.591C396.876 286.414 397.206 285.036 397.223 283.483C397.224 283.493 397.407 257.58 397.498 244.619ZM383.447 265.523L380.252 265.5L380.229 268.695L377.034 268.672L377.057 265.477L373.862 265.454L373.885 262.259L377.08 262.282L377.103 259.087L380.298 259.11L380.275 262.305L383.47 262.328L383.447 265.523ZM395.098 265.609L391.913 265.584L391.89 268.779L388.695 268.756L388.718 265.561L385.523 265.538L385.546 262.343L388.741 262.366L388.764 259.171L391.96 259.194L391.936 262.389L395.131 262.412L395.098 265.609Z" fill="#302F6C"/>
<path d="M391.959 259.194L388.764 259.171L388.741 262.366L385.546 262.343L385.523 265.538L388.718 265.561L388.695 268.756L391.88 268.78L391.913 265.584L395.098 265.608L395.121 262.413L391.936 262.389L391.959 259.194Z" fill="#22215B"/>
<path d="M380.298 259.11L377.113 259.085L377.09 262.281L373.895 262.257L373.872 265.452L377.067 265.476L377.044 268.671L380.229 268.695L380.252 265.5L383.447 265.523L383.47 262.328L380.275 262.305L380.298 259.11Z" fill="#22215B"/>
<path d="M367.44 270.648C365.029 274.852 360.48 277.668 355.289 277.63C350.128 277.589 345.65 274.738 343.289 270.547C342.141 268.508 341.488 266.149 341.513 263.649C341.568 255.978 347.834 249.816 355.495 249.872C360.625 249.907 365.078 252.721 367.455 256.88L379.636 249.984C374.876 241.617 365.915 235.955 355.594 235.883C340.192 235.759 327.617 248.15 327.502 263.541C327.468 268.59 328.777 273.339 331.088 277.445C335.833 285.854 344.829 291.552 355.17 291.632C365.532 291.71 374.626 286.118 379.483 277.756L367.44 270.648Z" fill="#22215B"/>
<g clip-path="url(#clip1)">
<path d="M169.491 525.859C169.491 525.859 164.613 528.623 172.89 529.675C182.928 530.943 188.065 530.831 199.162 528.868C199.162 528.868 202.05 530.728 206.1 532.357C181.155 542.707 149.926 531.077 169.491 525.859Z" fill="#302F6C"/>
<path d="M166.62 511.938C166.62 511.938 161.132 515.901 169.428 516.855C180.153 518.088 188.631 518.282 203.335 515.628C203.335 515.628 205.338 517.71 208.519 518.871C178.39 527.291 145.047 518.817 166.62 511.938Z" fill="#302F6C"/>
<path d="M192.471 488.686C198.501 495.799 190.706 502.048 190.706 502.048C190.706 502.048 206.333 494.215 199.317 484.091C192.764 474.652 187.711 469.938 215.557 454.218C215.557 454.218 172.013 464.545 192.471 488.686Z" fill="#302F6C"/>
<path d="M224.745 536.783C224.745 536.783 228.296 539.783 220.737 541.977C206.352 546.145 161.024 546.925 148.502 541.299C143.995 539.28 152.521 536.646 155.195 536.106C157.986 535.537 159.579 535.67 159.579 535.67C154.584 532.066 126.965 542.244 145.496 545.479C196.009 554.28 237.803 542.865 224.745 536.783Z" fill="#302F6C"/>
<path d="M172.153 497.619C172.153 497.619 149.042 502.818 163.907 504.984C170.185 505.898 182.714 505.86 194.396 505.013C203.944 504.319 213.539 502.717 213.539 502.717C213.539 502.717 210.155 504.122 207.706 505.751C184.223 511.634 139.041 508.239 152.135 502.102C163.202 496.909 172.153 497.619 172.153 497.619Z" fill="#302F6C"/>
<path d="M213.23 521.213C237.165 509.129 226.309 497.119 218.613 498.627C216.724 498.997 215.879 499.328 215.879 499.328C215.879 499.328 216.59 498.24 217.925 497.787C233.178 492.62 244.616 513.852 212.738 521.834C212.738 521.834 213.114 521.507 213.23 521.213Z" fill="#302F6C"/>
<path d="M199.978 428.127C199.978 428.127 212.998 441.464 187.087 461.43C166.305 477.448 182.091 486.906 186.651 497.55C174.759 486.569 166.049 476.912 172.072 468.106C180.909 455.164 205.041 449.128 199.978 428.127Z" fill="#302F6C"/>
<path d="M173.818 554.259C196.636 555.994 231.74 554.125 232.702 543.329C232.702 543.329 231.058 547.407 213.737 550.459C194.197 553.902 170.163 553.183 155.933 550.666C155.933 550.666 158.824 553.117 173.818 554.259Z" fill="#302F6C"/>
</g>
<defs>
<clipPath id="clip0">
<rect width="94.5555" height="94.5555" fill="white" transform="translate(1018.98 41) rotate(22.3666)"/>
</clipPath>
<clipPath id="clip1">
<rect width="92.22" height="129.45" fill="white" transform="translate(161.686 421) rotate(10.5429)"/>
</clipPath>
</defs>
</svg>
