<svg width="78" height="82" viewBox="0 0 78 82" fill="none" xmlns="http://www.w3.org/2000/svg">
<path d="M73.9892 20.9082C71.6985 16.9919 43.5765 0.816162 38.9977 0.816162C34.4194 0.816162 6.28593 16.9516 4.00761 20.9081C1.72917 24.8652 1.71706 57.1362 4.00723 61.0927C6.29816 65.0491 34.4217 81.1838 38.9977 81.1838C43.5737 81.1838 71.6996 65.0287 73.9887 61.0924C76.2775 57.1557 76.2793 24.8244 73.9892 20.9082ZM48.4782 65.8348C47.8516 65.8348 42.0113 60.2199 42.4707 59.7616C42.6084 59.6247 43.461 59.5285 45.2453 59.474V59.3224C45.2453 55.7848 45.3276 49.2281 45.3931 45.9244C45.3997 45.6068 45.323 45.3865 45.323 45.0068C41.0769 45.0068 36.9313 45.0068 32.6868 45.0068C32.6868 46.5253 32.6599 48.1597 32.6924 49.7692C32.7347 51.8944 32.7961 54.3229 32.9028 56.4461C32.9385 57.1592 32.6535 57.382 31.9948 57.3792C30.3928 57.3748 28.7897 57.3616 27.1866 57.366C26.5385 57.3679 26.2592 57.1265 26.279 56.4077C26.4007 52.0388 26.5292 47.3105 26.5245 42.9405C26.5195 37.7135 26.3825 28.2515 26.2551 23.0246V22.5274C24.7257 22.4726 23.6648 22.3763 23.5262 22.238C23.0646 21.7802 28.987 16.1653 29.611 16.1653C30.2363 16.1653 36.1203 21.7816 35.6611 22.238C35.523 22.3752 34.4119 22.4714 33.01 22.5263V23.023C32.6276 27.0644 32.6888 35.516 32.5942 39.5653C36.8919 39.5653 41.039 39.5653 45.2826 39.5653C45.2826 37.9203 45.3034 36.4004 45.2787 34.8784C45.2352 32.1915 45.1804 29.1222 45.0926 26.4359C45.076 25.9037 45.2425 25.6243 45.7584 25.62C47.5088 25.6079 49.2604 25.6002 51.0115 25.6113C51.5592 25.614 51.7347 25.8816 51.7227 26.4565C51.607 32.4799 51.4316 38.8573 51.4131 44.8822C51.4019 48.5081 51.4904 55.412 51.6178 59.2547V59.4724C53.0198 59.527 54.2764 59.6236 54.4149 59.7616C54.8744 60.2199 49.1038 65.8348 48.4782 65.8348Z" fill="#00B760"/>
</svg>
