<svg width="31" height="31" viewBox="0 0 31 31" fill="none" xmlns="http://www.w3.org/2000/svg">
<path d="M30.9002 15.5058C30.9002 19.8562 30.9002 24.2066 30.9002 28.557C30.9002 29.9386 29.9351 30.9 28.5465 30.9C19.8489 30.9 11.1542 30.9 2.45654 30.9C1.06492 30.9 0.0998535 29.9447 0.0998535 28.56C0.0998535 19.8502 0.0998535 11.1403 0.0998535 2.43041C0.0998535 1.06997 1.07097 0.102539 2.43839 0.102539C11.1542 0.102539 19.87 0.102539 28.5858 0.102539C29.9291 0.102539 30.8972 1.07904 30.8972 2.42739C30.9002 6.78686 30.9002 11.1463 30.9002 15.5058ZM16.5301 13.6828C16.4484 13.5649 16.4757 13.4651 16.4757 13.3744C16.4726 12.8968 16.4636 12.4161 16.4787 11.9384C16.4878 11.7117 16.4152 11.6482 16.1883 11.6512C14.9237 11.6603 13.6561 11.6633 12.3915 11.6512C12.1647 11.6482 12.1041 11.7147 12.1041 11.9384C12.1102 16.6425 12.1102 21.3466 12.1041 26.0508C12.1041 26.2714 12.1677 26.3198 12.3794 26.3198C13.7136 26.3108 15.0447 26.3077 16.3789 26.3198C16.6209 26.3228 16.6784 26.2533 16.6784 26.0175C16.6693 23.6503 16.6753 21.2832 16.6723 18.919C16.6723 18.526 16.6935 18.136 16.7419 17.743C16.9264 16.2465 17.6797 15.4514 19.0683 15.3002C20.4751 15.1491 21.3433 15.7749 21.6459 17.1565C21.7578 17.6644 21.7911 18.1813 21.7911 18.6983C21.7971 21.1411 21.7971 23.5838 21.7881 26.0266C21.7881 26.2382 21.8213 26.3228 22.0634 26.3198C23.3945 26.3077 24.7286 26.3077 26.0628 26.3198C26.2987 26.3228 26.3441 26.2442 26.3441 26.0266C26.3411 23.4599 26.3502 20.8901 26.3471 18.3234C26.3471 17.2502 26.2987 16.18 26.0567 15.1279C25.733 13.7191 25.0977 12.5249 23.7333 11.8538C22.8166 11.4033 21.8334 11.2975 20.829 11.2854C19.4888 11.2703 18.3362 11.7177 17.3621 12.6337C17.0353 12.9391 16.7782 13.2928 16.5301 13.6828ZM4.66499 18.9795C4.66499 21.3376 4.66802 23.6927 4.65894 26.0508C4.65894 26.2654 4.71037 26.3259 4.92819 26.3228C6.25932 26.3138 7.59346 26.3108 8.92458 26.3228C9.16055 26.3259 9.22711 26.2654 9.22711 26.0235C9.22106 21.3285 9.22106 16.6365 9.22711 11.9414C9.22711 11.7177 9.16963 11.6482 8.93971 11.6512C7.61766 11.6633 6.29259 11.6633 4.97055 11.6512C4.71642 11.6482 4.65289 11.7147 4.65592 11.9686C4.66802 14.3056 4.66499 16.6425 4.66499 18.9795ZM6.9521 9.63472C8.41029 9.6317 9.59619 8.44055 9.59317 6.98034C9.59014 5.54129 8.39818 4.3562 6.9521 4.3562C5.49695 4.3562 4.30196 5.55339 4.30801 7.01058C4.31406 8.4466 5.5151 9.63775 6.9521 9.63472Z" fill="#2967B2"/>
<path d="M16.5785 13.6589C16.8296 13.2689 17.0928 12.9182 17.4135 12.622C18.3967 11.718 19.5524 11.2796 20.8926 11.3069C21.897 11.328 22.8802 11.4429 23.7908 11.9024C25.1491 12.5857 25.7754 13.7859 26.0839 15.1977C26.3139 16.2498 26.3532 17.323 26.3441 18.3963C26.3229 20.963 26.2897 23.5327 26.2685 26.0994C26.2655 26.3171 26.2231 26.3927 25.9871 26.3897C24.656 26.3655 23.3219 26.3534 21.9907 26.3534C21.7487 26.3534 21.7154 26.2687 21.7185 26.0571C21.7487 23.6143 21.7729 21.1716 21.788 18.7288C21.7911 18.2119 21.7638 17.6949 21.6549 17.187C21.3645 15.8024 20.5023 15.1675 19.0925 15.3066C17.7039 15.4426 16.9415 16.2317 16.7449 17.7282C16.6935 18.1182 16.6693 18.5081 16.6662 18.9012C16.6451 21.2683 16.6178 23.6355 16.6057 25.9997C16.6057 26.2355 16.5452 26.305 16.3062 26.299C14.9751 26.2748 13.641 26.2627 12.3099 26.2597C12.0981 26.2597 12.0346 26.2083 12.0376 25.9876C12.089 21.2835 12.1314 16.5793 12.1707 11.8752C12.1737 11.6485 12.2342 11.585 12.4611 11.588C13.7257 11.6092 14.9933 11.6213 16.2578 11.6243C16.4847 11.6243 16.5543 11.6878 16.5452 11.9145C16.5241 12.3922 16.5301 12.8729 16.5271 13.3505C16.5271 13.4412 16.4999 13.538 16.5785 13.6589Z" fill="#FDFEFE"/>
<path d="M4.66499 18.9798C4.66499 16.6429 4.66801 14.3059 4.65894 11.966C4.65894 11.712 4.71944 11.6455 4.97356 11.6485C6.29561 11.6637 7.62068 11.6606 8.94273 11.6485C9.17265 11.6455 9.23013 11.715 9.23013 11.9388C9.22408 16.6338 9.22408 21.3258 9.23013 26.0209C9.23013 26.2627 9.16357 26.3232 8.9276 26.3202C7.59648 26.3081 6.26233 26.3081 4.93121 26.3202C4.71339 26.3232 4.66196 26.2597 4.66196 26.0481C4.66801 23.693 4.66499 21.3379 4.66499 18.9798Z" fill="#FDFDFE"/>
<path d="M6.9521 9.63507C5.51207 9.63809 4.31406 8.44392 4.30801 7.00789C4.30196 5.55373 5.49694 4.35352 6.9521 4.35352C8.39515 4.35352 9.59014 5.54164 9.59316 6.97766C9.59619 8.4409 8.41028 9.63507 6.9521 9.63507Z" fill="#FDFDFE"/>
</svg>
