<svg width="411" height="823" viewBox="0 0 411 823" fill="none" xmlns="http://www.w3.org/2000/svg">
<rect width="411" height="823" fill="#22215B"/>
<path d="M92.9347 121.909C92.4763 121.427 91.9958 120.949 91.488 120.464C91.7951 120.114 92.0854 119.768 92.3703 119.423C96.978 113.756 98.7827 108.199 96.7402 104.993C94.7799 101.923 89.3295 101.224 82.6109 102.845C81.9653 102.999 81.3075 103.18 80.638 103.376C80.4861 102.94 80.334 102.509 80.1757 102.095C77.5625 95.273 73.6521 90.9341 69.8551 91.1058C66.2179 91.2734 62.8888 95.6516 60.9387 102.276C60.7512 102.918 60.5739 103.577 60.4123 104.258C59.626 104.098 58.8498 103.959 58.1 103.85C51.389 102.877 46.1476 104.093 44.4715 107.314C42.741 110.643 44.8997 116.003 49.7686 121.105C50.1533 121.507 50.56 121.91 50.9831 122.314C50.4794 122.882 50.0086 123.451 49.5658 124.01C45.3694 129.336 43.8026 134.485 45.7579 137.544C47.7748 140.705 53.4961 141.509 60.3487 139.844C60.8887 139.713 61.4406 139.561 62.0042 139.393C62.2484 140.114 62.4993 140.808 62.7681 141.469C65.2885 147.764 68.9688 151.691 72.5947 151.528C76.3366 151.36 79.8992 146.804 81.872 140.037C82.021 139.521 82.1653 138.987 82.2938 138.436C82.687 138.514 83.0752 138.58 83.4525 138.646C90.6621 139.806 96.3825 138.594 98.1313 135.222C99.8134 131.99 97.6919 126.918 92.9347 121.909Z" fill="#302F6C"/>
<path d="M83.8604 136.091C83.5157 136.038 83.1659 135.973 82.8109 135.903C83.2498 133.399 83.5236 130.635 83.6289 127.692C85.8967 125.945 87.9521 124.145 89.7261 122.354C90.1916 122.799 90.6406 123.242 91.0621 123.685C95.1398 127.976 96.8517 132.076 95.8419 134.027C94.7605 136.106 90.0909 137.094 83.8604 136.091ZM79.386 139.313C78.513 142.305 77.3145 144.798 75.9616 146.529C74.7486 148.085 73.507 148.902 72.4751 148.945C70.2731 149.043 67.3193 145.891 65.1671 140.51C64.9184 139.893 64.6818 139.25 64.4575 138.579C66.8304 137.712 69.3418 136.576 71.9238 135.206C74.635 136.326 77.2842 137.223 79.7737 137.865C79.6528 138.366 79.5219 138.845 79.386 139.313ZM51.7709 137.969C49.8164 137.692 48.4901 137.029 47.933 136.156C46.7465 134.298 48.0049 130.167 51.595 125.612C52.0086 125.09 52.4445 124.564 52.9136 124.034C54.8593 125.66 57.1082 127.278 59.602 128.84C60.0015 131.699 60.5555 134.428 61.2516 136.925C60.7382 137.08 60.231 137.217 59.7412 137.334C56.7075 138.067 53.95 138.273 51.7709 137.969ZM51.636 119.318C49.4861 117.066 47.927 114.779 47.1065 112.738C46.3706 110.905 46.2859 109.425 46.7607 108.51C47.7762 106.554 51.988 105.579 57.7246 106.412C58.4198 106.513 59.1415 106.638 59.873 106.791C59.4107 109.327 59.0993 112.067 58.9646 114.926C56.6676 116.71 54.5714 118.564 52.7393 120.424C52.3587 120.055 51.9891 119.686 51.636 119.318ZM63.4188 103.006C65.0911 97.3278 67.7836 93.7868 69.9746 93.6888C72.3092 93.5805 75.5102 97.1286 77.7615 103.021C77.905 103.396 78.0423 103.787 78.1794 104.184C75.7514 105.049 73.2195 106.151 70.6676 107.462C68.0207 106.383 65.4093 105.505 62.9258 104.852C63.0798 104.22 63.2389 103.599 63.4188 103.006ZM83.5928 120.762C83.5397 119.569 83.4586 118.387 83.3544 117.232C84.9536 118.336 86.4464 119.48 87.8012 120.63C86.5688 121.871 85.1872 123.122 83.6796 124.357C83.6755 123.178 83.6449 121.976 83.5928 120.762ZM78.9317 106.657C79.3926 108.352 79.7872 110.181 80.1058 112.112C79.0795 111.516 78.0304 110.937 76.964 110.378C75.9028 109.826 74.8346 109.306 73.7655 108.808C75.5254 107.98 77.2588 107.257 78.9317 106.657ZM64.646 110.925C63.6376 111.57 62.6505 112.232 61.6902 112.912C61.8454 110.98 62.0853 109.129 62.3978 107.379C64.1077 107.833 65.8844 108.401 67.695 109.074C66.6725 109.663 65.6543 110.28 64.646 110.925ZM59.2119 125.507C57.558 124.394 56.0368 123.271 54.6812 122.138C55.9485 120.854 57.3593 119.566 58.8846 118.304C58.8831 119.483 58.9087 120.674 58.9616 121.872C59.0187 123.097 59.1041 124.307 59.2119 125.507ZM63.6999 136.101C63.2243 134.361 62.8145 132.504 62.4801 130.556C63.4854 131.128 64.5239 131.697 65.5906 132.249C66.6841 132.82 67.779 133.358 68.8698 133.862C67.0856 134.743 65.351 135.494 63.6999 136.101ZM80.9432 129.675C80.8122 131.685 80.5927 133.576 80.2909 135.331C78.548 134.876 76.7225 134.29 74.8419 133.581C75.8591 132.986 76.883 132.363 77.9083 131.708C78.9507 131.043 79.9604 130.365 80.9432 129.675ZM76.521 129.528C74.9237 130.544 73.3405 131.489 71.7889 132.341C70.1398 131.626 68.4611 130.831 66.7858 129.96C65.1159 129.089 63.5187 128.194 62.0049 127.28C61.7854 125.48 61.6286 123.628 61.5443 121.757C61.4598 119.892 61.446 118.046 61.5021 116.242C62.948 115.159 64.4643 114.106 66.0333 113.106C67.6081 112.1 69.2019 111.166 70.792 110.315C72.4523 111.026 74.1202 111.814 75.774 112.673C77.4331 113.538 79.0406 114.45 80.5747 115.404C80.779 117.175 80.9312 119.005 81.0155 120.876C81.0988 122.769 81.1238 124.61 81.0912 126.382C79.64 127.459 78.1128 128.511 76.521 129.528ZM94.5589 106.391C95.8177 108.363 94.3433 112.904 90.3638 117.799C90.1079 118.113 89.841 118.427 89.5685 118.74C87.6083 117.069 85.3933 115.43 82.9818 113.877C82.5989 111.013 82.066 108.308 81.39 105.855C82.0093 105.672 82.6169 105.506 83.2123 105.366C88.9681 103.974 93.3777 104.539 94.5589 106.391Z" fill="#22215B"/>
<path d="M73.792 116.476C76.437 117.852 77.4691 121.113 76.0933 123.758C74.7175 126.403 71.456 127.436 68.811 126.06C66.166 124.684 65.1339 121.423 66.5097 118.778C67.8855 116.132 71.147 115.1 73.792 116.476Z" fill="#302F6C"/>
<g clip-path="url(#clip0)">
<path d="M41.6514 326.105C41.6514 326.105 38.7623 327.742 43.6646 328.365C49.6095 329.116 52.6521 329.05 59.2242 327.887C59.2242 327.887 60.9349 328.989 63.3338 329.953C48.5597 336.084 30.0636 329.195 41.6514 326.105Z" fill="#302F6C"/>
<path d="M39.9507 317.86C39.9507 317.86 36.7005 320.207 41.6137 320.772C47.966 321.502 52.987 321.617 61.6957 320.045C61.6957 320.045 62.882 321.278 64.7661 321.966C46.9215 326.953 27.1738 321.934 39.9507 317.86Z" fill="#302F6C"/>
<path d="M55.2616 304.088C58.8331 308.301 54.2163 312.002 54.2163 312.002C54.2163 312.002 63.4718 307.363 59.3164 301.367C55.4349 295.777 52.4423 292.984 68.9349 283.674C68.9349 283.674 43.1448 289.79 55.2616 304.088Z" fill="#302F6C"/>
<path d="M74.3768 332.575C74.3768 332.575 76.4799 334.352 72.003 335.651C63.4828 338.12 36.6365 338.581 29.2202 335.249C26.551 334.054 31.6006 332.493 33.1843 332.174C34.8375 331.837 35.7806 331.916 35.7806 331.916C32.8224 329.781 16.4647 335.809 27.44 337.725C57.357 342.938 82.1105 336.177 74.3768 332.575Z" fill="#302F6C"/>
<path d="M43.228 309.379C43.228 309.379 29.5398 312.458 38.3436 313.741C42.0623 314.283 49.4826 314.26 56.4015 313.759C62.0567 313.347 67.7395 312.399 67.7395 312.399C67.7395 312.399 65.7352 313.231 64.2845 314.196C50.3763 317.68 23.6166 315.669 31.3718 312.034C37.9264 308.959 43.228 309.379 43.228 309.379Z" fill="#302F6C"/>
<path d="M67.5565 323.353C81.7326 316.196 75.3029 309.083 70.745 309.976C69.6258 310.195 69.1254 310.391 69.1254 310.391C69.1254 310.391 69.5466 309.747 70.3376 309.478C79.3713 306.418 86.1459 318.993 67.2652 323.721C67.2652 323.721 67.4879 323.527 67.5565 323.353Z" fill="#302F6C"/>
<path d="M59.7079 268.221C59.7079 268.221 67.4189 276.12 52.0728 287.946C39.7644 297.432 49.114 303.034 51.8144 309.338C44.7714 302.834 39.6127 297.115 43.1799 291.899C48.4139 284.234 62.7065 280.659 59.7079 268.221Z" fill="#302F6C"/>
<path d="M44.2138 342.926C57.7282 343.953 78.5195 342.846 79.0891 336.452C79.0891 336.452 78.1154 338.867 67.8568 340.675C56.2839 342.714 42.0493 342.288 33.6214 340.798C33.6214 340.798 35.3333 342.249 44.2138 342.926Z" fill="#302F6C"/>
</g>
<path fill-rule="evenodd" clip-rule="evenodd" d="M350.156 74.4241C344.398 74.3827 339.702 79.0156 339.659 84.7662C339.649 86.6499 340.131 88.4146 340.993 89.9451L359.134 79.6773C357.343 76.5713 354 74.4586 350.156 74.4241Z" fill="#302F6C"/>
<path fill-rule="evenodd" clip-rule="evenodd" d="M329.142 84.693C329.227 73.1312 338.668 63.8293 350.222 63.9153C357.963 63.9706 364.698 68.2278 368.271 74.5014L380.944 67.3329C380.445 66.4396 379.69 65.6901 378.682 65.0918C370.328 60.1953 361.962 55.3155 353.614 50.4106C351.363 49.0905 349.167 49.1172 346.918 50.4277C343.566 52.3759 326.773 61.8333 321.767 64.6812C319.706 65.8559 318.696 67.6618 318.675 70.0306C318.599 79.7544 318.53 89.4847 318.454 99.2159C318.449 100.381 318.685 101.411 319.169 102.306L331.841 95.1301C330.099 92.0485 329.117 88.4911 329.142 84.693Z" fill="#302F6C"/>
<path d="M340.994 89.9525C342.766 93.0985 346.128 95.2391 350.002 95.2701C353.899 95.2984 357.314 93.184 359.124 90.028L350.174 84.7564L340.994 89.9525Z" fill="#302F6C"/>
<path d="M349.921 105.78C342.15 105.721 335.404 101.443 331.842 95.1299L319.17 102.306C319.672 103.221 320.429 103.993 321.469 104.603C326.428 107.529 343.086 117.23 346.408 119.224C348.647 120.568 350.838 120.625 353.105 119.343C361.526 114.562 369.964 109.802 378.392 105.02C379.433 104.428 380.212 103.67 380.724 102.755L368.18 95.3626C364.526 101.641 357.707 105.838 349.921 105.78Z" fill="#302F6C"/>
<path d="M381.689 70.4876C381.699 69.2995 381.453 68.2402 380.944 67.3329L350.173 84.749L380.723 102.748C381.223 101.864 381.47 100.829 381.483 99.6636C381.484 99.6711 381.621 80.2179 381.689 70.4876ZM371.141 86.1808L368.742 86.1635L368.725 88.5621L366.326 88.5447L366.344 86.1461L363.945 86.1288L363.963 83.7302L366.361 83.7475L366.378 81.349L368.777 81.3663L368.76 83.7649L371.158 83.7823L371.141 86.1808ZM379.888 86.2451L377.497 86.2269L377.479 88.6254L375.081 88.6081L375.098 86.2095L372.7 86.1922L372.717 83.7936L375.116 83.8109L375.133 81.4123L377.532 81.4297L377.514 83.8283L379.913 83.8456L379.888 86.2451Z" fill="#302F6C"/>
<path d="M377.531 81.4296L375.133 81.4122L375.115 83.8108L372.717 83.7934L372.699 86.192L375.098 86.2094L375.081 88.608L377.472 88.6262L377.497 86.2267L379.888 86.245L379.905 83.8464L377.514 83.8281L377.531 81.4296Z" fill="#22215B"/>
<path d="M368.777 81.3662L366.386 81.348L366.368 83.7466L363.97 83.7292L363.953 86.1278L366.351 86.1452L366.334 88.5438L368.725 88.562L368.742 86.1634L371.141 86.1808L371.158 83.7822L368.76 83.7648L368.777 81.3662Z" fill="#22215B"/>
<path d="M359.124 90.0281C357.314 93.1841 353.899 95.2985 350.002 95.2702C346.128 95.2392 342.766 93.0986 340.994 89.9526C340.131 88.4221 339.641 86.6508 339.66 84.7737C339.701 79.0156 344.406 74.3892 350.156 74.4316C354.008 74.4577 357.351 76.5704 359.135 79.6922L368.28 74.5155C364.706 68.2345 357.979 63.9838 350.231 63.9294C338.669 63.8368 329.228 73.1387 329.142 84.6931C329.116 88.4837 330.099 92.0486 331.834 95.1311C335.396 101.444 342.149 105.721 349.913 105.782C357.692 105.84 364.518 101.642 368.165 95.3646L359.124 90.0281Z" fill="#22215B"/>
<defs>
<clipPath id="clip0">
<rect width="54.6191" height="76.6693" fill="white" transform="translate(37.0283 264) rotate(10.5429)"/>
</clipPath>
</defs>
</svg>
